<svg width="395" height="429" viewBox="0 0 395 429" fill="none" xmlns="http://www.w3.org/2000/svg">
<path d="M187 109C191.596 109 196.147 109.905 200.394 111.664C204.64 113.423 208.499 116.001 211.749 119.251C214.999 122.501 217.577 126.36 219.336 130.606C221.095 134.853 222 139.404 222 144V281H221.948C221.982 281.663 222 282.33 222 283C222 310.614 192.899 333 157 333C121.101 333 92 310.614 92 283C92 255.386 121.101 233 157 233C167.421 233 177.27 234.887 186 238.24V159C186 150.716 179.284 144 171 144H49C40.7157 144 34 150.716 34 159V369C34 382.807 45.1929 394 59 394H261C274.807 394 286 382.807 286 369V159C286 150.716 279.284 144 271 144H252V109H280C302.091 109 320 126.909 320 149V173C329.849 173 339.602 174.94 348.701 178.709C357.801 182.478 366.069 188.002 373.033 194.967C379.998 201.931 385.522 210.199 389.291 219.299C393.06 228.398 395 238.151 395 248C395 257.849 393.06 267.602 389.291 276.701C385.522 285.801 379.998 294.069 373.033 301.033C366.069 307.998 357.801 313.522 348.701 317.291C339.602 321.06 329.849 323 320 323V379C320 406.614 297.614 429 270 429H50C22.3858 429 0 406.614 0 379V149C0 126.909 17.9086 109 40 109H187ZM320 294.425C326.097 294.425 332.133 293.224 337.766 290.891C343.398 288.558 348.516 285.138 352.827 280.827C357.138 276.516 360.558 271.398 362.891 265.766C365.224 260.133 366.425 254.097 366.425 248C366.425 241.903 365.224 235.867 362.891 230.234C360.558 224.602 357.138 219.484 352.827 215.173C348.516 210.862 343.398 207.442 337.766 205.109C332.133 202.776 326.097 201.575 320 201.575V294.425Z" fill="url(#paint0_linear_2007_41)"/>
<path d="M160 0C168.284 0 175 6.71573 175 15V105C175 113.284 168.284 120 160 120C151.716 120 145 113.284 145 105V15C145 6.71573 151.716 0 160 0ZM112 25C120.284 25 127 31.7157 127 40V80C127 88.2843 120.284 95 112 95C103.716 95 97 88.2843 97 80V40C97 31.7157 103.716 25 112 25ZM208 25C216.284 25 223 31.7157 223 40V80C223 88.2843 216.284 95 208 95C199.716 95 193 88.2843 193 80V40C193 31.7157 199.716 25 208 25ZM64 45C72.2843 45 79 51.7157 79 60C79 68.2843 72.2843 75 64 75C55.7157 75 49 68.2843 49 60C49 51.7157 55.7157 45 64 45ZM256 45C264.284 45 271 51.7157 271 60C271 68.2843 264.284 75 256 75C247.716 75 241 68.2843 241 60C241 51.7157 247.716 45 256 45Z" fill="url(#paint1_linear_2007_41)"/>
<defs>
<linearGradient id="paint0_linear_2007_41" x1="-45.4462" y1="187.146" x2="-45.4462" y2="431.049" gradientUnits="userSpaceOnUse">
<stop stop-color="#F36767"/>
<stop offset="1" stop-color="#FFC852"/>
</linearGradient>
<linearGradient id="paint1_linear_2007_41" x1="213.974" y1="32.0833" x2="213.974" y2="121.917" gradientUnits="userSpaceOnUse">
<stop stop-color="#FF5B5B"/>
<stop offset="1" stop-color="#FFC852"/>
</linearGradient>
</defs>
</svg>
